<?xml version="1.0" standalone="no"?>
<!DOCTYPE svg PUBLIC "-//W3C//DTD SVG 20010904//EN"
 "http://www.w3.org/TR/2001/REC-SVG-20010904/DTD/svg10.dtd">
<svg version="1.0" xmlns="http://www.w3.org/2000/svg"
 width="187.000000pt" height="202.000000pt" viewBox="0 0 187.000000 202.000000"
 preserveAspectRatio="xMidYMid meet">

<g transform="translate(0.000000,202.000000) scale(0.100000,-0.100000)"
fill="#000000" stroke="none">
<path d="M870 1914 c-105 -20 -169 -37 -164 -45 3 -5 -2 -6 -10 -3 -13 5 -96
-30 -96 -41 0 -3 14 1 30 10 17 9 30 13 30 10 0 -2 -18 -14 -41 -26 -23 -11
-38 -15 -34 -9 16 25 -62 -25 -113 -74 -149 -140 -232 -321 -232 -506 0 -292
149 -535 405 -661 72 -35 93 -49 73 -49 -61 0 -233 113 -328 217 -29 32 -47
47 -40 33 20 -39 161 -172 218 -205 28 -16 52 -33 52 -37 0 -3 -16 -10 -36
-15 -58 -13 275 -20 633 -12 132 3 155 6 125 14 l-37 11 56 31 c228 129 370
418 338 688 -9 80 -46 221 -55 212 -2 -2 0 -17 7 -33 6 -16 17 -62 25 -102 43
-226 -27 -466 -186 -629 -86 -88 -240 -180 -286 -171 -10 2 8 13 42 27 135 55
250 154 321 276 167 283 123 625 -111 873 -88 94 -231 175 -353 201 -61 12
-198 21 -233 15z m60 -34 c0 -5 -4 -10 -10 -10 -5 0 -10 5 -10 10 0 6 5 10 10
10 6 0 10 -4 10 -10z m93 -51 c-3 -17 0 -35 7 -44 16 -19 9 -28 -14 -19 -11 4
-15 13 -10 26 5 17 3 19 -15 13 -17 -5 -21 -2 -21 14 0 11 -4 23 -10 26 -6 4
-10 -8 -10 -30 0 -22 -4 -34 -10 -30 -5 3 -10 17 -10 30 0 13 -5 27 -11 31
-20 12 7 19 60 16 49 -4 50 -4 44 -33z m-114 5 c14 -31 7 -44 -23 -44 -25 0
-54 26 -42 38 4 4 12 -1 17 -11 11 -18 39 -24 39 -7 0 6 -5 10 -11 10 -5 0 -7
5 -4 10 3 6 -1 10 -9 10 -9 0 -16 5 -16 10 0 21 37 9 49 -16z m-124 -43 c0
-20 -9 -27 -52 -42 -49 -17 -53 -17 -63 -1 -7 13 -9 14 -10 3 0 -12 -3 -12
-12 -3 -16 16 -1 31 55 53 57 23 82 20 82 -10z m404 8 c55 -23 57 -27 39 -52
-12 -15 -17 -14 -63 5 -62 27 -58 23 -50 47 8 26 10 26 74 0z m-127 -70 c129
-27 262 -117 337 -230 58 -87 81 -169 81 -288 0 -105 -18 -177 -64 -256 -47
-80 -54 -66 -10 20 24 47 44 94 44 103 -1 9 -10 -5 -20 -32 -28 -73 -36 -76
-58 -25 -14 31 -17 49 -10 62 15 28 4 30 -40 8 -44 -22 -82 -64 -82 -90 0 -13
2 -14 9 -2 5 8 20 15 33 15 21 1 23 -2 20 -34 -2 -19 -5 -45 -7 -57 -5 -22
-50 -55 -94 -68 -23 -7 -23 -7 -7 16 9 13 16 39 16 59 0 19 11 61 24 93 23 55
22 69 -2 45 -9 -9 -12 -6 -12 15 0 17 5 27 15 27 8 0 15 7 15 15 0 16 -16 20
-24 6 -3 -4 -17 -6 -31 -4 -13 3 -22 10 -19 15 3 5 12 7 20 4 8 -3 14 1 14 10
0 8 4 13 9 10 4 -3 17 1 27 9 17 13 16 14 -16 9 -19 -4 -39 -11 -45 -15 -16
-15 -62 -10 -69 8 -5 13 -9 14 -19 4 -9 -9 -9 -14 3 -21 13 -8 13 -10 -1 -10
-19 0 -31 34 -17 48 5 5 6 37 2 74 l-6 65 -22 -21 c-13 -12 -19 -25 -14 -30 4
-6 8 -26 8 -45 l0 -36 -60 -3 c-73 -3 -83 10 -50 63 12 20 20 38 18 41 -3 2
-22 -9 -42 -25 -20 -16 -64 -39 -97 -50 l-60 -20 -14 32 -13 31 -7 -57 c-4
-32 -5 -80 -1 -106 8 -58 0 -68 -31 -39 -25 24 -29 18 -11 -15 6 -12 19 -53
29 -92 9 -38 20 -79 24 -90 7 -16 6 -18 -6 -8 -7 7 -21 13 -31 13 -10 0 -21 6
-24 14 -3 8 -13 16 -23 19 -21 5 -46 86 -27 88 7 0 7 2 -1 6 -14 5 -18 53 -5
53 5 0 17 -7 28 -15 28 -21 40 -18 19 5 -16 17 -107 70 -121 70 -2 0 5 -15 16
-33 27 -43 27 -87 0 -87 -24 0 -27 -27 -5 -56 16 -21 21 -44 6 -29 -5 6 -26
37 -45 69 -47 78 -46 62 0 -23 25 -46 30 -60 16 -48 -53 48 -112 208 -112 308
0 63 34 190 67 252 56 102 162 196 263 232 97 35 216 44 312 24z m-468 -18
c14 -15 15 -24 6 -40 -19 -36 -80 -22 -80 19 0 39 46 52 74 21z m779 -25 c-3
-34 -20 -48 -44 -36 -42 23 -27 73 20 68 22 -3 26 -8 24 -32z m-899 -95 c36
-39 -5 -91 -43 -57 -24 21 -27 46 -9 64 17 17 32 15 52 -7z m1010 -6 c18 -19
7 -58 -18 -63 -39 -8 -63 47 -28 67 23 14 28 13 46 -4z m-1076 -127 c17 -17
15 -43 -3 -58 -32 -27 -88 34 -58 63 11 11 48 8 61 -5z m1152 -3 c17 -21 -2
-65 -28 -65 -22 0 -42 19 -42 40 0 37 47 53 70 25z m-1185 -161 c0 -23 -5 -30
-23 -32 -44 -6 -67 32 -37 62 24 24 60 6 60 -30z m1223 24 c28 -28 1 -75 -37
-63 -40 12 -38 75 3 75 12 0 27 -5 34 -12z m-750 -138 c18 -11 39 -20 47 -20
36 0 83 -35 117 -88 55 -85 71 -129 64 -176 -7 -42 -25 -73 -35 -58 -3 5 -37
7 -74 4 -61 -4 -66 -6 -50 -19 16 -14 15 -14 -7 -1 -33 20 -50 54 -50 104 0
38 6 50 75 164 8 13 7 13 -9 1 -15 -13 -19 -13 -27 0 -7 11 -9 11 -9 0 0 -7
-6 -11 -14 -8 -8 3 -17 1 -19 -6 -3 -7 -20 3 -44 26 -21 20 -47 37 -56 37 -24
0 -21 26 5 44 29 21 46 20 86 -4z m-470 -21 c4 -31 -25 -61 -37 -40 -5 7 -12
12 -17 11 -18 -3 -28 28 -14 45 21 25 64 16 68 -16z m1230 -3 c4 -28 -10 -46
-36 -46 -8 0 -10 5 -6 12 5 7 2 9 -9 5 -21 -8 -33 29 -16 49 7 8 24 14 38 12
20 -2 27 -9 29 -32z m-570 -22 c12 -8 22 -22 22 -31 0 -13 -3 -13 -15 -3 -10
9 -15 9 -15 1 0 -18 -18 -13 -30 9 -11 20 -6 40 8 40 4 0 18 -7 30 -16z m-229
-53 c48 -45 53 -52 46 -78 -11 -39 -11 -144 -1 -168 l9 -20 -22 20 c-12 11
-31 29 -43 40 l-22 20 18 -28 c17 -28 17 -28 -3 -18 -18 10 -41 40 -41 55 0 3
8 3 19 1 14 -3 18 1 14 16 -3 10 -10 19 -16 19 -10 0 -4 107 8 118 3 3 19 -4
35 -17 17 -12 30 -18 30 -13 0 14 -53 60 -82 71 -16 6 -28 15 -28 21 0 22 28
8 79 -39z m371 31 c21 8 20 5 -10 -21 -19 -17 -38 -30 -42 -31 -5 0 -8 -4 -8
-9 0 -4 12 -6 26 -3 22 4 25 2 21 -14 -17 -54 -18 -72 -6 -79 8 -5 10 -4 5 3
-4 7 -2 12 3 12 14 0 14 -17 1 -25 -5 -3 -7 -12 -4 -20 4 -8 10 -12 15 -9 12
7 11 0 -3 -31 -10 -22 -108 -86 -108 -71 0 2 7 17 15 32 18 35 19 60 3 136
-11 54 -11 59 10 81 12 13 22 30 22 38 0 24 13 32 25 16 7 -10 17 -12 35 -5z
m-782 -68 c26 -18 28 -37 6 -58 -17 -18 -39 -22 -29 -6 3 5 0 7 -9 4 -9 -3
-19 3 -26 16 -9 18 -8 25 6 41 21 23 24 23 52 3z m1172 -8 c20 -25 8 -61 -20
-64 -20 -2 -22 -1 -10 8 12 9 10 10 -10 8 -17 -2 -26 2 -28 15 -8 39 42 63 68
33z m-969 -153 c13 -16 12 -17 -3 -4 -10 7 -18 15 -18 17 0 8 8 3 21 -13z
m-27 -15 c9 -12 16 -32 16 -43 0 -43 156 -113 302 -135 134 -20 301 20 431
103 53 34 79 68 40 52 -37 -15 -53 -17 -53 -6 0 11 16 16 88 25 32 5 42 3 42
-8 0 -8 19 -25 43 -39 33 -20 38 -27 25 -32 -9 -4 -33 4 -57 20 l-42 26 -35
-27 -35 -27 31 -32 c16 -17 30 -34 30 -38 0 -13 -23 -7 -43 10 -18 17 -19 17
-32 0 -13 -18 -45 -23 -45 -7 0 6 11 16 25 22 25 11 34 28 15 28 -5 0 -25 -8
-45 -17 -30 -14 -33 -19 -21 -32 7 -9 15 -28 18 -42 4 -24 2 -26 -23 -25 -34
2 -48 13 -25 22 9 3 16 10 16 16 0 5 -5 6 -11 2 -6 -3 -22 -1 -35 7 -33 17
-41 5 -21 -36 23 -49 21 -64 -4 -38 -17 17 -26 19 -39 11 -25 -16 -50 -4 -43
21 4 17 1 21 -17 21 -15 0 -20 -5 -17 -14 3 -8 9 -31 13 -50 5 -30 4 -35 -9
-30 -9 3 -17 15 -19 27 -3 24 -25 32 -48 17 -13 -9 -12 -12 4 -25 11 -8 15
-15 10 -15 -16 0 -34 22 -34 42 0 13 10 20 30 25 45 9 36 25 -12 21 l-43 -3
-3 -45 c-2 -25 -7 -49 -13 -55 -17 -17 -9 -25 19 -19 21 5 25 4 15 -6 -15 -16
-63 -5 -63 15 0 7 5 17 10 20 6 3 10 15 10 27 0 17 -4 20 -29 15 -19 -4 -33
-1 -41 8 -9 11 -9 15 -1 15 6 0 11 9 11 20 0 11 -6 20 -14 20 -14 0 -18 -8
-30 -63 -10 -45 -28 -20 -20 29 4 30 3 44 -5 44 -10 0 -16 -11 -37 -69 -3 -11
-9 -9 -25 7 -11 12 -24 22 -29 22 -16 0 -11 38 6 48 13 7 14 11 3 17 -9 6 -22
-3 -42 -27 l-29 -36 -34 20 c-19 11 -34 24 -34 30 0 22 22 48 43 49 22 0 22 0
-2 12 -21 10 -27 8 -51 -21 -30 -37 -40 -40 -40 -13 0 10 -7 21 -15 25 -18 7
-20 46 -2 47 23 2 42 -3 49 -14 6 -9 8 -9 8 0 0 7 -11 20 -25 29 -23 15 -26
15 -56 -10 -49 -42 -71 -30 -24 14 14 13 25 29 25 35 0 13 36 33 62 34 9 1 24
-9 32 -21z m856 -67 c0 -6 -4 -13 -10 -16 -18 -11 -10 -24 18 -28 27 -4 27 -4
-3 -6 -42 -2 -60 17 -38 41 17 20 33 24 33 9z m-590 -10 l25 -7 -23 -13 c-12
-6 -26 -10 -30 -7 -10 6 -61 18 -84 19 -10 1 -18 5 -18 9 0 10 95 9 130 -1z
m387 3 c-3 -3 -39 -7 -79 -9 -46 -2 -66 0 -53 5 23 10 142 13 132 4z m-173
-19 c-2 -20 -50 -35 -102 -33 -55 3 -67 10 -59 31 6 15 163 17 161 2z m386
-85 c0 -12 -28 -25 -36 -17 -9 9 6 27 22 27 8 0 14 -5 14 -10z"/>
<path d="M990 1830 c0 -5 5 -10 10 -10 6 0 10 5 10 10 0 6 -4 10 -10 10 -5 0
-10 -4 -10 -10z"/>
<path d="M1005 1713 c60 -8 141 -35 194 -66 69 -39 161 -131 200 -199 17 -29
31 -49 31 -44 0 16 -52 99 -92 148 -72 87 -231 170 -321 167 -33 -2 -35 -3
-12 -6z"/>
<path d="M777 1695 c-68 -25 -155 -85 -205 -140 -57 -64 -109 -164 -117 -226
-5 -38 -3 -34 20 29 58 166 149 260 313 328 61 25 52 32 -11 9z"/>
<path d="M956 1673 c-4 -4 -15 -8 -24 -8 -17 0 -30 -22 -82 -136 -13 -30 -30
-58 -37 -62 -7 -4 -13 -13 -13 -19 0 -7 4 -7 13 -1 6 5 26 15 44 22 31 12 34
11 70 -23 45 -43 65 -45 87 -11 17 26 21 26 76 7 13 -5 13 -3 -1 14 -24 30
-37 66 -44 129 -5 35 -15 65 -26 76 -19 19 -50 25 -63 12z m46 -24 c22 -12 24
-49 3 -49 -8 0 -15 -4 -15 -10 0 -5 9 -10 20 -10 24 0 24 -3 4 -45 -22 -47
-39 -50 -78 -13 -30 28 -32 35 -23 56 8 17 8 25 -1 31 -9 5 -8 12 2 26 15 22
60 29 88 14z m-99 -64 c-3 -9 -8 -14 -10 -11 -3 3 -2 9 2 15 9 16 15 13 8 -4z
m57 -95 c14 -11 31 -20 38 -20 18 0 11 -30 -10 -44 -22 -14 -68 27 -68 61 0
28 7 29 40 3z"/>
<path d="M945 1601 c-6 -11 9 -23 19 -14 9 9 7 23 -3 23 -6 0 -12 -4 -16 -9z"/>
<path d="M980 1536 c0 -9 5 -16 10 -16 6 0 10 4 10 9 0 6 -4 13 -10 16 -5 3
-10 -1 -10 -9z"/>
<path d="M810 1560 c0 -19 3 -21 12 -12 9 9 9 15 0 24 -9 9 -12 7 -12 -12z"/>
<path d="M755 1350 c-10 -33 -16 -62 -13 -65 3 -3 13 22 23 55 10 33 16 62 13
65 -3 3 -13 -22 -23 -55z"/>
<path d="M1121 1379 c1 -77 36 -187 53 -168 4 5 -41 190 -49 197 -3 3 -5 -10
-4 -29z"/>
<path d="M938 1369 c-10 -5 -18 -17 -18 -24 0 -23 14 -17 27 10 6 14 10 25 10
25 -1 0 -10 -5 -19 -11z"/>
<path d="M1441 1344 c0 -11 3 -14 6 -6 3 7 2 16 -1 19 -3 4 -6 -2 -5 -13z"/>
<path d="M821 1309 c-16 -27 -10 -32 30 -24 29 7 30 8 13 18 -10 6 -21 14 -24
18 -3 5 -11 -1 -19 -12z"/>
<path d="M1451 1304 c0 -11 3 -14 6 -6 3 7 2 16 -1 19 -3 4 -6 -2 -5 -13z"/>
<path d="M1101 1024 c0 -11 3 -14 6 -6 3 7 2 16 -1 19 -3 4 -6 -2 -5 -13z"/>
<path d="M545 835 c33 -27 42 -26 25 4 -6 12 -20 21 -33 21 -21 -1 -20 -2 8
-25z"/>
<path d="M515 770 c3 -5 11 -10 16 -10 6 0 7 5 4 10 -3 6 -11 10 -16 10 -6 0
-7 -4 -4 -10z"/>
<path d="M620 730 c-14 -4 -19 -8 -12 -9 6 -1 12 -5 12 -11 0 -5 -7 -7 -15 -4
-8 4 -15 1 -15 -5 0 -18 41 -13 56 7 25 32 19 36 -26 22z"/>
<path d="M730 690 c0 -5 -7 -10 -15 -10 -8 0 -15 -4 -15 -10 0 -18 39 -10 50
10 9 16 8 20 -5 20 -8 0 -15 -4 -15 -10z"/>
<path d="M1112 668 c6 -18 28 -21 28 -4 0 9 -7 16 -16 16 -9 0 -14 -5 -12 -12z"/>
<path d="M890 655 c0 -8 7 -15 15 -15 8 0 15 7 15 15 0 8 -7 15 -15 15 -8 0
-15 -7 -15 -15z"/>
<path d="M1626 1487 c3 -10 9 -15 12 -12 3 3 0 11 -7 18 -10 9 -11 8 -5 -6z"/>
<path d="M310 826 c0 -2 8 -10 18 -17 15 -13 16 -12 3 4 -13 16 -21 21 -21 13z"/>
<path d="M177 608 c-40 -11 -97 -57 -97 -80 0 -8 12 -25 26 -39 24 -23 32 -24
138 -23 62 1 124 4 139 8 23 5 25 9 20 44 -7 48 -7 48 -33 22 -42 -42 -117
-53 -171 -24 -41 21 -37 55 8 67 39 11 65 3 57 -17 -4 -11 -14 -13 -35 -9 -34
7 -40 -12 -6 -21 60 -16 141 9 135 42 -7 38 -96 53 -181 30z m116 -5 c-7 -2
-19 -2 -25 0 -7 3 -2 5 12 5 14 0 19 -2 13 -5z"/>
<path d="M1569 601 c-23 -19 -23 -20 -6 -39 21 -23 76 -36 118 -27 42 9 36 25
-7 18 -32 -5 -36 -4 -32 13 4 24 55 31 82 11 27 -20 14 -46 -34 -64 -21 -9
-38 -20 -37 -26 1 -6 -9 -14 -23 -18 -17 -5 0 -7 48 -8 197 -3 179 134 -19
153 -57 5 -70 3 -90 -13z"/>
<path d="M1510 515 l0 -45 42 0 c40 0 41 1 22 15 -12 8 -27 28 -34 45 -18 43
-30 37 -30 -15z"/>
<path d="M1178 483 c7 -3 16 -2 19 1 4 3 -2 6 -13 5 -11 0 -14 -3 -6 -6z"/>
<path d="M1353 473 c9 -2 23 -2 30 0 6 3 -1 5 -18 5 -16 0 -22 -2 -12 -5z"/>
<path d="M1801 460 c-19 -17 -38 -20 -116 -20 -51 0 -130 7 -175 16 -45 8 -89
13 -98 12 -29 -7 213 -49 288 -51 81 -2 77 10 42 -117 -13 -49 -23 -68 -42
-77 -19 -10 -21 -13 -7 -13 29 0 10 -19 -26 -25 -20 -4 -77 5 -152 23 -177 44
-288 56 -403 47 -114 -10 -141 -10 -288 0 -127 9 -215 -1 -403 -46 -138 -32
-188 -36 -217 -14 -18 14 -18 14 0 15 17 0 17 1 -3 17 -11 10 -36 59 -54 108
l-33 90 105 2 c59 1 135 9 171 17 36 8 49 13 30 10 -19 -2 -92 -7 -162 -11
-108 -5 -131 -3 -152 11 -14 9 -27 16 -30 16 -2 0 9 -28 25 -61 38 -78 69
-159 69 -180 0 -9 10 -29 22 -44 21 -28 22 -28 107 -20 114 11 285 12 341 2
l45 -7 -38 14 c-54 20 -55 24 -14 41 55 23 142 31 232 22 44 -4 105 -6 135 -5
214 9 340 -3 340 -32 0 -5 -23 -16 -51 -25 -70 -24 -56 -29 27 -9 68 16 144
15 316 -2 54 -5 59 -4 88 24 16 17 30 39 30 49 0 27 45 174 64 212 19 36 19
37 -13 11z"/>
<path d="M730 380 c0 -61 19 -87 21 -27 l1 32 14 -32 c21 -49 34 -40 34 21 0
59 -19 90 -21 34 l-1 -33 -14 33 c-21 49 -34 39 -34 -28z"/>
<path d="M820 380 c0 -38 4 -59 10 -55 6 3 10 14 11 23 0 14 3 13 16 -5 18
-26 51 -30 59 -8 8 20 24 19 41 -2 13 -16 14 -14 8 21 -3 21 -11 50 -16 65
-10 24 -11 25 -24 8 -7 -9 -15 -35 -19 -57 -7 -48 -19 -51 -36 -9 -10 22 -10
33 -1 42 6 6 11 18 11 27 -1 11 -6 9 -20 -9 -15 -17 -20 -19 -20 -8 0 9 -4 19
-10 22 -6 4 -10 -17 -10 -55z m120 -1 c0 -11 -4 -18 -10 -14 -5 3 -7 12 -3 20
7 21 13 19 13 -6z"/>
<path d="M1081 396 c-6 -25 -11 -53 -11 -63 1 -17 2 -16 16 2 15 20 15 20 30
1 7 -11 16 -18 18 -15 9 8 -19 112 -30 116 -6 2 -16 -16 -23 -41z m29 -22 c0
-8 -5 -12 -10 -9 -6 4 -8 11 -5 16 9 14 15 11 15 -7z"/>
<path d="M1197 422 c-21 -23 -22 -75 -2 -92 20 -16 49 -9 54 15 3 19 3 19 -17
2 -20 -18 -20 -18 -26 1 -7 21 14 84 21 65 6 -17 23 -16 23 1 0 8 -7 17 -16
20 -21 8 -19 9 -37 -12z"/>
<path d="M577 424 c-15 -15 -6 -44 18 -60 33 -22 32 -38 -2 -29 -26 6 -27 5
-11 -11 19 -19 45 -13 55 12 4 12 -2 24 -20 38 -32 26 -35 40 -6 31 15 -5 20
-3 17 6 -5 15 -40 24 -51 13z"/>
<path d="M656 393 c-3 -21 -6 -47 -6 -57 0 -18 1 -18 19 -2 18 17 20 17 29 -1
20 -34 24 -4 7 46 -20 60 -40 66 -49 14z m34 -24 c0 -5 -4 -9 -10 -9 -5 0 -10
7 -10 16 0 8 5 12 10 9 6 -3 10 -10 10 -16z"/>
<path d="M990 374 c0 -34 4 -53 10 -49 6 3 10 15 10 26 0 26 18 24 22 -3 2
-12 9 -23 17 -26 9 -3 11 0 6 8 -4 7 -7 32 -7 56 1 42 0 44 -28 44 -30 0 -30
-1 -30 -56z m40 32 c0 -8 -4 -18 -10 -21 -5 -3 -10 3 -10 14 0 12 5 21 10 21
6 0 10 -6 10 -14z"/>
<path d="M1277 423 c-24 -43 -11 -113 22 -113 29 0 43 24 39 72 -3 38 -6 43
-30 46 -14 2 -28 0 -31 -5z m41 -50 c-4 -52 -28 -56 -28 -4 0 30 4 41 16 41
11 0 14 -9 12 -37z"/>
<path d="M1355 375 c-4 -31 -6 -58 -3 -60 10 -11 118 -16 118 -6 0 6 -7 11
-16 11 -13 0 -15 8 -9 51 6 41 4 51 -6 47 -8 -3 -16 -24 -19 -49 -3 -24 -8
-43 -12 -41 -5 1 -14 2 -22 2 -10 0 -12 11 -9 44 3 25 1 46 -5 50 -7 4 -13
-15 -17 -49z"/>
<path d="M465 410 c-4 -6 -4 -33 0 -60 6 -44 10 -50 30 -50 13 0 27 5 30 10 3
6 -3 10 -14 10 -26 0 -28 25 -3 35 15 6 14 8 -5 16 -29 11 -30 29 -2 29 11 0
17 5 14 10 -8 13 -42 13 -50 0z"/>
<path d="M150 406 c0 -4 36 -127 46 -155 2 -8 7 -12 9 -9 5 5 -44 168 -50 168
-3 0 -5 -2 -5 -4z"/>
<path d="M394 395 c-4 -8 -3 -35 0 -60 7 -42 9 -45 37 -45 16 0 29 5 29 10 0
6 -9 10 -20 10 -25 0 -26 25 -2 35 15 6 14 8 -8 17 -23 9 -24 10 -7 22 23 17
22 26 -3 26 -11 0 -23 -7 -26 -15z"/>
<path d="M1486 373 c-12 -75 -9 -83 27 -83 29 1 30 2 15 14 -23 17 -23 36 0
36 16 1 16 1 0 14 -23 17 -23 26 2 26 24 0 27 15 4 24 -31 12 -41 5 -48 -31z"/>
<path d="M1565 384 c-11 -11 -15 -30 -13 -57 3 -34 7 -42 30 -48 22 -6 27 -3
32 15 9 34 7 46 -9 46 -8 0 -15 -9 -15 -20 0 -11 -4 -20 -10 -20 -13 0 -13 40
0 60 9 13 11 13 20 0 7 -11 12 -12 20 -4 8 8 7 16 -5 28 -21 20 -29 20 -50 0z"/>
<path d="M237 379 c-27 -16 -20 -47 13 -64 17 -9 28 -21 24 -26 -4 -7 -10 -7
-17 0 -15 15 -27 14 -27 -3 0 -18 31 -29 54 -20 24 9 19 41 -9 60 -30 20 -33
38 -5 29 25 -8 27 11 2 24 -11 6 -24 6 -35 0z"/>
<path d="M305 344 c8 -58 14 -74 27 -74 6 0 8 11 6 25 -6 30 17 35 25 5 3 -11
11 -20 17 -20 8 0 10 8 5 23 -4 12 -8 36 -8 52 -2 27 -5 30 -41 33 l-38 3 7
-47z m45 11 c0 -8 -4 -15 -10 -15 -5 0 -10 7 -10 15 0 8 5 15 10 15 6 0 10 -7
10 -15z"/>
<path d="M1636 358 c-17 -82 -16 -86 11 -93 32 -8 43 3 20 19 -21 16 -22 26
-2 26 17 0 20 16 5 25 -17 11 -11 25 11 25 11 0 17 5 14 10 -3 6 -17 10 -30
10 -18 0 -26 -7 -29 -22z"/>
<path d="M1368 263 c7 -3 16 -2 19 1 4 3 -2 6 -13 5 -11 0 -14 -3 -6 -6z"/>
<path d="M1442 246 c25 -7 68 -16 95 -19 l48 -6 -55 14 c-30 8 -73 16 -95 19
-40 6 -40 5 7 -8z"/>
<path d="M338 223 c6 -2 18 -2 25 0 6 3 1 5 -13 5 -14 0 -19 -2 -12 -5z"/>
<path d="M777 217 c-10 -27 -9 -57 3 -57 6 0 10 5 10 12 0 6 6 4 13 -6 12 -16
13 -14 13 18 0 26 -3 33 -12 25 -9 -7 -13 -5 -16 8 -3 17 -4 17 -11 0z"/>
<path d="M1164 216 c-5 -13 -9 -14 -20 -5 -9 8 -14 8 -14 1 0 -6 5 -14 10 -17
6 -3 10 -16 10 -28 1 -15 5 -9 15 18 13 37 13 66 -1 31z"/>
<path d="M283 213 c9 -2 23 -2 30 0 6 3 -1 5 -18 5 -16 0 -22 -2 -12 -5z"/>
<path d="M866 212 c-3 -5 -10 -22 -16 -37 -9 -24 -8 -26 6 -21 9 4 23 1 30 -5
12 -9 13 -6 8 22 -7 38 -19 55 -28 41z m14 -32 c0 -5 -4 -10 -10 -10 -5 0 -10
5 -10 10 0 6 5 10 10 10 6 0 10 -4 10 -10z"/>
<path d="M1060 180 c0 -33 3 -40 20 -40 34 0 46 52 16 72 -25 17 -36 7 -36
-32z m35 0 c0 -13 -6 -25 -12 -27 -9 -3 -13 6 -13 27 0 21 4 30 13 28 6 -3 12
-15 12 -28z"/>
<path d="M921 178 c-1 -30 3 -38 17 -38 11 0 13 3 5 8 -6 4 -13 21 -16 37 -4
27 -4 27 -6 -7z"/>
<path d="M991 179 c-14 -41 -14 -44 4 -29 12 10 18 10 30 0 18 -15 18 -12 4
29 -6 17 -15 31 -19 31 -4 0 -13 -14 -19 -31z m24 1 c3 -5 1 -10 -4 -10 -6 0
-11 5 -11 10 0 6 2 10 4 10 3 0 8 -4 11 -10z"/>
</g>
</svg>
